<svg width="18" height="20" viewBox="0 0 18 20" fill="none" xmlns="http://www.w3.org/2000/svg">
<g clip-path="url(#clip0_97_28)">
<path d="M9.375 3.125H13.3867C13.0781 2.36328 12.5898 1.69922 11.9727 1.17578L9.375 3.125ZM10.8477 0.460938C10.207 0.164063 9.5 0 8.75 0C6.65234 0 4.85547 1.29297 4.11328 3.125H7.29297L10.8477 0.460938ZM8.75 10C11.5117 10 13.75 7.76172 13.75 5C13.75 4.78906 13.7383 4.57812 13.7109 4.375H3.78906C3.76172 4.57812 3.75 4.78906 3.75 5C3.75 7.76172 5.98828 10 8.75 10ZM4.84375 12.2031C4.46484 12.3242 4.09766 12.4766 3.75 12.6602V20H9.51953L7.08984 15.9453L4.84375 12.2031ZM6.13281 11.9219L7.98047 15H10.625C12.3516 15 13.75 16.3984 13.75 18.125C13.75 18.8281 13.5156 19.4766 13.125 20H16.3398C16.9805 20 17.5 19.4805 17.5 18.8398C17.5 14.9922 14.3828 11.875 10.5352 11.875H6.96484C6.68359 11.875 6.40625 11.8906 6.13281 11.9258V11.9219ZM0 18.8398C0 19.4805 0.519531 20 1.16016 20H2.5V13.4922C0.972656 14.7695 0 16.6914 0 18.8398ZM12.5 18.125C12.5 17.0898 11.6602 16.25 10.625 16.25H8.73047L10.9609 19.9688C11.8359 19.8125 12.5 19.0469 12.5 18.125Z" fill="#1E40AF"/>
</g>
<defs>
<clipPath id="clip0_97_28">
<path d="M0 0H17.5V20H0V0Z" fill="white"/>
</clipPath>
</defs>
</svg>
